<?xml version="1.0" encoding="UTF-8" standalone="no"?>
<svg xmlns="http://www.w3.org/2000/svg" xmlns:xlink="http://www.w3.org/1999/xlink" contentScriptType="application/ecmascript" contentStyleType="text/css" height="800px" preserveAspectRatio="none" style="width:1200px;height:800px;background:#FFFFFF;" version="1.1" viewBox="0 0 1200 800" width="1200px" zoomAndPan="magnify">
  <defs>
    <filter height="300%" id="f1jhpafkpujjqx" width="300%" x="-1" y="-1">
      <feGaussianBlur result="blurOut" stdDeviation="2.0"/>
      <feColorMatrix in="blurOut" result="blurOut2" type="matrix" values="0 0 0 0 0 0 0 0 0 0 0 0 0 0 0 0 0 0 .4 0"/>
      <feOffset dx="4.0" dy="4.0" in="blurOut2" result="blurOut3"/>
      <feBlend in="SourceGraphic" in2="blurOut3" mode="normal"/>
    </filter>
  </defs>
  <g>
    <rect fill="#FFFFFF" filter="url(#f1jhpafkpujjqx)" height="734.8281" style="stroke:#A80036;stroke-width:1.0;" width="1115" x="43" y="32"/>
    <rect fill="#FFFFFF" height="622.0938" style="stroke:none;stroke-width:1.0;" width="1115" x="43" y="144.7344"/>
    <text fill="#000000" font-family="sans-serif" font-size="18" lengthAdjust="spacing" textLength="372" x="414.5" y="61.4023">Parsl Ephemeral AWS Provider Architecture</text>
    <text fill="#000000" font-family="sans-serif" font-size="18" lengthAdjust="spacing" textLength="0" x="604.5" y="84.7363"/>
    <rect fill="#FFFFFF" filter="url(#f1jhpafkpujjqx)" height="30" style="stroke:#A80036;stroke-width:1.0;" width="147" x="527" y="94.7344"/>
    <text fill="#000000" font-family="sans-serif" font-size="14" lengthAdjust="spacing" textLength="133" x="534" y="114.7295">Parsl Application</text>
    <line style="stroke:#A80036;stroke-width:1.0;" x1="600.5" x2="600.5" y1="124.7344" y2="153.7344"/>
    <rect fill="#90EE90" filter="url(#f1jhpafkpujjqx)" height="187.3594" style="stroke:#A80036;stroke-width:1.0;" width="1069" x="66" y="153.7344"/>
    <text fill="#000000" font-family="sans-serif" font-size="14" lengthAdjust="spacing" textLength="148" x="526.5" y="173.7295">Parsl Core System</text>
    <rect fill="#ADD8E6" filter="url(#f1jhpafkpujjqx)" height="30" style="stroke:#A80036;stroke-width:1.0;" width="92" x="553.5" y="183.7344"/>
    <text fill="#000000" font-family="sans-serif" font-size="14" lengthAdjust="spacing" textLength="78" x="560.5" y="203.7295">Dataflow</text>
    <rect fill="#ADD8E6" filter="url(#f1jhpafkpujjqx)" height="30" style="stroke:#A80036;stroke-width:1.0;" width="127" x="536" y="233.7344"/>
    <text fill="#000000" font-family="sans-serif" font-size="14" lengthAdjust="spacing" textLength="113" x="543" y="253.7295">Task Executor</text>
    <rect fill="#ADD8E6" filter="url(#f1jhpafkpujjqx)" height="30" style="stroke:#A80036;stroke-width:1.0;" width="89" x="555" y="283.7344"/>
    <text fill="#000000" font-family="sans-serif" font-size="14" lengthAdjust="spacing" textLength="75" x="562" y="303.7295">Channels</text>
    <line style="stroke:#A80036;stroke-width:1.0;" x1="600.5" x2="600.5" y1="213.7344" y2="233.7344"/>
    <line style="stroke:#A80036;stroke-width:1.0;" x1="600.5" x2="600.5" y1="263.7344" y2="283.7344"/>
    <line style="stroke:#A80036;stroke-width:1.0;" x1="600.5" x2="600.5" y1="313.7344" y2="341.0938"/>
    <rect fill="#FFB6C1" filter="url(#f1jhpafkpujjqx)" height="425.7344" style="stroke:#A80036;stroke-width:1.0;" width="1069" x="66" y="341.0938"/>
    <text fill="#000000" font-family="sans-serif" font-size="14" lengthAdjust="spacing" textLength="213" x="494" y="361.0889">EphemeralAWSProvider</text>
    <rect fill="#FAFAD2" filter="url(#f1jhpafkpujjqx)" height="347.3594" style="stroke:#A80036;stroke-width:1.0;" width="1021" x="90" y="381.0938"/>
    <text fill="#000000" font-family="sans-serif" font-size="14" lengthAdjust="spacing" textLength="127" x="537" y="401.0889">Operating Modes</text>
    <path d="M140.5,426.0938 L140.5,435.5938 L600.5,435.5938 L600.5,426.0938 L160.5,426.0938 L140.5,426.0938 " fill="#EEEEEE" style="stroke:#000000;stroke-width:1.0;"/>
    <rect fill="#EEEEEE" height="23.5" style="stroke:#000000;stroke-width:1.0;" width="420" x="160.5" y="412.0938"/>
    <text fill="#000000" font-family="sans-serif" font-size="14" lengthAdjust="spacing" textLength="130" x="305.5" y="428.7295">Standard Mode</text>
    <rect fill="#FFFFFF" filter="url(#f1jhpafkpujjqx)" height="30" style="stroke:#A80036;stroke-width:1.0;" width="84" x="158.5" y="470.0938"/>
    <text fill="#000000" font-family="sans-serif" font-size="14" lengthAdjust="spacing" textLength="70" x="165.5" y="490.0889">Compute</text>
    <rect fill="#FFFFFF" filter="url(#f1jhpafkpujjqx)" height="30" style="stroke:#A80036;stroke-width:1.0;" width="76" x="162.5" y="520.0938"/>
    <text fill="#000000" font-family="sans-serif" font-size="14" lengthAdjust="spacing" textLength="62" x="169.5" y="540.0889">Network</text>
    <rect fill="#FFFFFF" filter="url(#f1jhpafkpujjqx)" height="30" style="stroke:#A80036;stroke-width:1.0;" width="56" x="172.5" y="570.0938"/>
    <text fill="#000000" font-family="sans-serif" font-size="14" lengthAdjust="spacing" textLength="42" x="179.5" y="590.0889">State</text>
    <path d="M600.5,426.0938 L600.5,435.5938 L1060.5,435.5938 L1060.5,426.0938 L620.5,426.0938 L600.5,426.0938 " fill="#EEEEEE" style="stroke:#000000;stroke-width:1.0;"/>
    <rect fill="#EEEEEE" height="23.5" style="stroke:#000000;stroke-width:1.0;" width="420" x="620.5" y="412.0938"/>
    <text fill="#000000" font-family="sans-serif" font-size="14" lengthAdjust="spacing" textLength="134" x="763.5" y="428.7295">Detached Mode</text>
    <rect fill="#FFFFFF" filter="url(#f1jhpafkpujjqx)" height="30" style="stroke:#A80036;stroke-width:1.0;" width="84" x="618.5" y="470.0938"/>
    <text fill="#000000" font-family="sans-serif" font-size="14" lengthAdjust="spacing" textLength="70" x="625.5" y="490.0889">Compute</text>
    <rect fill="#FFFFFF" filter="url(#f1jhpafkpujjqx)" height="30" style="stroke:#A80036;stroke-width:1.0;" width="76" x="622.5" y="520.0938"/>
    <text fill="#000000" font-family="sans-serif" font-size="14" lengthAdjust="spacing" textLength="62" x="629.5" y="540.0889">Network</text>
    <rect fill="#FFFFFF" filter="url(#f1jhpafkpujjqx)" height="30" style="stroke:#A80036;stroke-width:1.0;" width="56" x="632.5" y="570.0938"/>
    <text fill="#000000" font-family="sans-serif" font-size="14" lengthAdjust="spacing" textLength="42" x="639.5" y="590.0889">State</text>
    <rect fill="#FFFFFF" filter="url(#f1jhpafkpujjqx)" height="30" style="stroke:#A80036;stroke-width:1.0;" width="83" x="619" y="620.0938"/>
    <text fill="#000000" font-family="sans-serif" font-size="14" lengthAdjust="spacing" textLength="69" x="626" y="640.0889">Bastion</text>
    <path d="M140.5,436.0938 L140.5,445.5938 L600.5,445.5938 L600.5,436.0938 L160.5,436.0938 L140.5,436.0938 " fill="#EEEEEE" style="stroke:#000000;stroke-width:1.0;"/>
    <path d="M600.5,436.0938 L600.5,445.5938 L1060.5,445.5938 L1060.5,436.0938 L620.5,436.0938 L600.5,436.0938 " fill="#EEEEEE" style="stroke:#000000;stroke-width:1.0;"/>
    <line style="stroke:#A80036;stroke-width:1.0;" x1="201" x2="201" y1="500.0938" y2="520.0938"/>
    <line style="stroke:#A80036;stroke-width:1.0;" x1="201" x2="201" y1="550.0938" y2="570.0938"/>
    <line style="stroke:#A80036;stroke-width:1.0;" x1="661" x2="661" y1="500.0938" y2="520.0938"/>
    <line style="stroke:#A80036;stroke-width:1.0;" x1="661" x2="661" y1="550.0938" y2="570.0938"/>
    <line style="stroke:#A80036;stroke-width:1.0;" x1="661" x2="661" y1="600.0938" y2="620.0938"/>
    <path d="M140.5,690.0938 L140.5,699.5938 L1060.5,699.5938 L1060.5,690.0938 L160.5,690.0938 L140.5,690.0938 " fill="#EEEEEE" style="stroke:#000000;stroke-width:1.0;"/>
    <rect fill="#EEEEEE" height="23.5" style="stroke:#000000;stroke-width:1.0;" width="880" x="160.5" y="676.0938"/>
    <text fill="#000000" font-family="sans-serif" font-size="14" lengthAdjust="spacing" textLength="150" x="525.5" y="692.7295">Serverless Mode</text>
    <rect fill="#FFFFFF" filter="url(#f1jhpafkpujjqx)" height="30" style="stroke:#A80036;stroke-width:1.0;" width="83" x="389" y="720.0938"/>
    <text fill="#000000" font-family="sans-serif" font-size="14" lengthAdjust="spacing" textLength="69" x="396" y="740.0889">Lambda</text>
    <rect fill="#FFFFFF" filter="url(#f1jhpafkpujjqx)" height="30" style="stroke:#A80036;stroke-width:1.0;" width="70" x="565.5" y="720.0938"/>
    <text fill="#000000" font-family="sans-serif" font-size="14" lengthAdjust="spacing" textLength="56" x="572.5" y="740.0889">ECS</text>
    <rect fill="#FFFFFF" filter="url(#f1jhpafkpujjqx)" height="30" style="stroke:#A80036;stroke-width:1.0;" width="56" x="732.5" y="720.0938"/>
    <text fill="#000000" font-family="sans-serif" font-size="14" lengthAdjust="spacing" textLength="42" x="739.5" y="740.0889">State</text>
    <path d="M140.5,700.0938 L140.5,709.5938 L1060.5,709.5938 L1060.5,700.0938 L160.5,700.0938 L140.5,700.0938 " fill="#EEEEEE" style="stroke:#000000;stroke-width:1.0;"/>
    <rect fill="#EEEEEE" height="23.5" style="stroke:#000000;stroke-width:1.0;" width="880" x="160.5" y="686.0938"/>
    <line style="stroke:#A80036;stroke-width:1.0;" x1="600.5" x2="430.5" y1="709.5938" y2="720.0938"/>
    <line style="stroke:#A80036;stroke-width:1.0;" x1="600.5" x2="600.5" y1="709.5938" y2="720.0938"/>
    <line style="stroke:#A80036;stroke-width:1.0;" x1="600.5" x2="757.5" y1="709.5938" y1="720.0938"/>
    <line style="stroke:#A80036;stroke-width:1.0;" x1="600.5" x2="600.5" y1="341.0938" y2="381.0938"/>
    <line style="stroke:#A80036;stroke-width:1.0;" x1="600.5" x2="201" y1="435.5938" y2="470.0938"/>
    <line style="stroke:#A80036;stroke-width:1.0;" x1="600.5" x2="661" y1="435.5938" y2="470.0938"/>
    <line style="stroke:#A80036;stroke-width:1.0;" x1="600.5" x2="600.5" y1="436.0938" y2="690.0938"/>
    <line style="stroke:#A80036;stroke-width:1.0;stroke-dasharray:1.0,4.0;" x1="66" x2="1135" y1="766.8281" y2="766.8281"/>
    <rect fill="#FFFFFF" filter="url(#f1jhpafkpujjqx)" height="30" style="stroke:#A80036;stroke-width:1.0;" width="57" x="572" y="775.8281"/>
    <text fill="#000000" font-family="sans-serif" font-size="14" lengthAdjust="spacing" textLength="43" x="579" y="795.8232">AWS</text>
  </g>
</svg>
